<svg width="187" height="94" viewBox="0 0 187 94" fill="none" xmlns="http://www.w3.org/2000/svg">
<path fill-rule="evenodd" clip-rule="evenodd" d="M131.433 71.8723C131.905 71.4591 131.158 70.1357 131.157 69.1571C131.348 65.6748 134.06 73.2927 136.465 72.745C135.494 71.7076 135.076 69.1213 133.654 69.9286C135.04 69.0065 133.326 66.4417 134.954 65.2654C134.072 64.8792 132.319 62.2817 131.562 63.6973C130.901 62.7552 130.28 61.8695 129.614 60.9213C128.799 61.8728 126.099 61.6774 126.071 63.2162C126.217 63.9962 127.321 64.8668 126.24 65.4784C126.755 67.3616 127.112 69.8513 128.574 71.5647C128.401 65.9256 129.831 69.0422 131.433 71.8723ZM161.639 72.2729C162.901 73.4308 167.077 77.2357 165.966 77.9447C164.43 78.4197 165.009 79.8417 164.825 81.3917C166.884 78.7527 166.695 83.3737 167.28 84.7127C167.918 86.6517 169.258 87.8037 170.701 89.4167C167.566 79.4747 170.33 85.5277 174.504 88.5817C174.199 87.0807 173.091 85.6157 171.888 84.3907C169.935 79.8177 176.088 87.7848 177.587 87.2858C177.013 86.3678 177.073 84.7188 175.991 84.0068C173.439 82.6198 171.917 79.9917 170.587 77.2277C168.239 75.7684 168.306 72.1446 166.444 69.5671C165.014 69.7955 163.173 71.3737 161.639 72.2729ZM59.611 87.3688C59.9184 85.4727 60.3737 83.2627 60.7607 81.2247C60.0725 77.1277 59.7106 73.3344 59.3959 69.0499C58.1767 61.806 59.581 59.107 52.3139 58.6596C51.4822 58.6118 51.7577 60.7997 51.508 61.7375C50.881 62.5037 51.1835 63.2013 50.7793 64.1458C50.3126 64.9176 51.4651 66.0102 51.7608 67.0504C55.2181 73.5564 54.8078 80.8817 57.9459 87.5867C58.0146 86.7917 58.8505 86.7077 59.611 87.3688ZM110.574 8.05225C109.153 6.54765 107.517 4.72235 105.814 3.16745C100.705 2.15905 95.587 4.17795 90.356 5.49715C82.586 7.15385 72.036 6.53825 66.1591 4.50205C66.0711 8.69475 69.6305 11.9908 71.9802 15.4371C77.7085 22.8264 84.805 31.3289 82.457 40.5451C97.186 29.3366 106.697 38.1329 117.323 31.7118C117.868 32.4049 117.503 33.0275 117.297 34.0626C119.321 36.6065 121.921 39.2161 124.579 41.4758C137.166 53.8902 152.352 62.4052 155.171 74.317C158.893 71.5693 162.704 67.4645 166.28 68.3302C160.091 55.8325 147.157 48.2733 137.821 38.0711C135.221 35.1746 133.009 32.5704 130.614 29.3459C124.143 18.3625 116.929 14.688 110.574 8.05225ZM142.059 8.88185C138.607 8.39905 137.967 8.40325 135.461 6.10745C134.567 9.02995 130.903 5.53855 132.805 11.0253C130.994 12.7389 130.509 9.56135 131.163 8.10975C125.737 8.14695 130.161 13.4189 130.994 16.1179C129.711 17.7781 128.019 14.9523 127.723 13.5865C125.624 14.2259 123.395 14.5597 121.073 15.1095C138.153 30.2086 126.628 27.4375 136.195 22.6841C136.742 22.2643 136.242 21.2627 137.193 20.6723C137.57 20.4475 137.95 20.6102 138.155 21.2124C139.209 26.7833 143.494 22.3544 139.826 19.898C139.844 18.9884 141.521 19.4961 141.363 18.3919C141.339 14.1681 144.647 10.9211 147.489 7.97195C147.07 7.88805 146.735 7.82075 146.39 7.75135C146.588 7.93795 146.75 8.09035 146.95 8.27905C146.102 8.86795 145.171 8.60225 144.442 8.98945C144.237 10.5852 143.65 11.3007 142.537 11.1932C142.696 10.4513 142.853 9.72125 143.014 8.96945C142.94 8.95275 142.537 8.86585 142.059 8.88185ZM71.5 30.4861C69.8459 30.6796 68.1774 30.4311 66.2868 30.4639C70.9644 40.6733 69.6958 46.2966 70.4949 54.2392C72.0751 48.1887 77.2813 46.4123 79.348 41.1798C80.804 37.9465 81.068 34.7075 79.973 31.1555C79.76 30.4455 79.275 29.4165 78.2851 29.8178C76.1221 30.6015 73.8984 30.3997 71.5 30.4861ZM70.5109 28.0127C72.9898 28.1987 75.6508 28.3313 78.3758 27.8709C76.8937 25.2676 75.4348 22.8361 73.4102 20.3522C61.4015 5.38455 68.7906 7.43685 61.7052 7.57195C65.7987 13.6427 67.0369 20.7794 66.7265 28.0127H70.5109ZM115.838 54.018C122.851 62.1367 117.533 63.045 125.451 59.7366C126.298 58.7598 129.32 58.6967 128.173 57.1564C125.119 52.2188 121.193 48.3249 117.13 43.9599C111.428 36.5418 113.952 36.5702 109.626 37.3863C107.194 37.8592 105.039 37.3167 102.436 37.8479C106.612 43.2529 111.495 48.4501 115.838 54.018ZM126.152 12.5488C126.352 12.5076 126.552 12.4661 126.712 12.4331C124.948 6.50055 130.295 6.56925 134.006 5.87775C134.338 5.06865 134.527 4.33405 135.771 4.30475C139.028 6.21125 138.175 6.78555 142.479 7.21815C143.56 7.38745 144.251 7.69735 145.543 7.68525C145.971 7.35475 146.337 6.87435 147.068 6.78985C151.724 6.37395 155.955 9.70415 157.366 14.0834C158.458 16.7263 157.365 19.5295 156.378 22.15C157.888 26.389 170.53 26.2927 165.721 33.0431C172.257 36.5406 178.677 40.8986 183.682 46.7049C186.139 49.7505 189.445 56.7153 183.276 57.0561C182.425 57.0158 180.983 57.4632 180.966 58.7701C181.194 60.967 182.918 62.1417 183.732 64.3179C191.981 81.2087 173.749 71.1938 167.189 66.5796C167.428 67.2829 167.814 68.2177 168.052 69.0404C167.833 69.4339 167.683 69.409 168.293 70.0228C170.467 72.4839 170.799 75.3546 173.022 77.8777C174.16 80.5617 181.962 83.8848 178.479 86.2858C179.802 89.8368 178.067 89.6647 175.576 87.7998C177.342 91.9597 174.451 90.5397 172.25 88.6397C175.568 100.16 165.58 88.9077 165.318 84.5987C162.243 87.3547 162.005 83.1357 162.475 80.8107C162.386 80.0917 163.333 79.3777 162.457 78.9197C163.505 77.6487 162.692 75.465 161.498 74.1021C160.261 71.1105 156.828 76.4717 154.469 75.9127C152.386 73.3064 150.509 69.6565 148.361 66.468C146.948 71.5224 142.712 73.5571 139.663 68.1631C137.953 63.736 138.455 59.0578 135.106 55.2713C131.007 49.5165 125.74 45.1418 120.62 40.1777C114.923 34.4403 118.248 33.8298 113.421 36.4957C118.646 43.6488 127.008 48.8495 130.48 57.3681C130.621 58.4392 130.601 59.2804 131.517 60.1567C132.441 62.0815 134.047 62.7836 135.691 64.0289C137.124 65.2948 137.809 67.6796 135.042 67.3673C135.954 69.8083 138.331 71.6518 139.182 74.2162C140.284 78.0837 133.937 73.5965 133.071 72.5184C133.365 75.4046 132.159 75.4228 130.584 72.9464C130.955 77.7568 127.107 72.1252 126.632 70.4822C125.63 68.267 125.95 66.0454 124.593 63.9193C123.982 62.8475 121.124 64.6341 120.049 64.5642C118.724 64.3618 115.5 62.6026 118.513 62.036C113.731 53.4638 105.678 46.9657 101.222 38.0409C95.015 36.5194 87.542 40.6049 82.276 44.4398C68.5922 55.9417 73.1754 59.7378 69.4925 56.7892C66.0253 51.4531 68.5092 44.8326 67.0546 38.7864C66.6468 36.7351 65.8516 33.7747 64.6541 32.214C64.1608 32.2561 63.8317 32.3974 63.5504 31.7479C63.3089 30.5586 62.7791 30.7238 61.6533 31.2278C59.6116 31.9911 58.1153 32.6185 55.838 32.7757C45.0709 32.6833 34.6908 31.5611 23.8407 30.4572C33.3036 36.958 37.3251 43.5165 43.711 48.9929C50.642 55.5368 52.281 53.5154 51.7816 57.0302C53.682 57.9619 57.9517 56.5369 59.0784 59.6242C62.18 67.868 61.4458 76.8887 62.9029 85.6397C61.0113 85.3438 62.7773 91.3087 59.7544 89.4507C58.058 94.6447 54.0767 82.9878 53.9572 81.6748C52.8865 76.5188 52.2387 71.3961 50.293 66.3441C49.7304 66.8984 49.4396 68.8077 48.0423 68.1173C44.0453 66.4344 40.2505 64.2485 36.359 61.97C26.4443 56.9149 17.5231 50.4678 9.80429 42.4751C5.46469 38.0704 -0.467606 33.6075 0.281293 26.6269C1.10679 19.4523 21.1251 13.736 25.1019 12.0124C31.1412 8.95085 60.4016 0.53065 61.0147 5.92715C62.4301 6.14495 62.4714 4.61065 63.46 3.77585C64.0661 3.17695 64.6403 3.78825 65.0849 2.77375C71.2989 3.52715 77.7329 3.63885 84.189 3.39235C91.045 3.41475 96.727 -0.74885 103.731 0.51465C109.896 3.35295 113.87 10.6244 120.119 14.0437C122.015 13.34 123.884 12.5446 126.152 12.5488Z" fill="black"/>
</svg>
